<svg width="273" height="273" viewBox="0 0 273 273" fill="none" xmlns="http://www.w3.org/2000/svg">
<g clip-path="url(#clip0_533_781)">
<g filter="url(#filter0_b_533_781)">
<circle cx="136.5" cy="136.5" r="136.5" fill="#222222" />
<circle cx="136.5" cy="136.5" r="136" stroke="url(#paint0_linear_533_781)" stroke-opacity="0.2"/>
</g>
<path d="M-299.912 208.477C-322.118 208.477 -342.32 203.542 -360.517 193.673C-378.406 183.495 -392.747 168.845 -403.542 149.722C-414.028 130.292 -419.271 106.698 -419.271 78.9395V1.21707C-419.271 -40.4199 -407.551 -72.3416 -384.111 -94.5481C-360.671 -117.063 -328.904 -128.32 -288.809 -128.32C-249.022 -128.32 -218.334 -117.68 -196.745 -96.3986C-174.847 -75.4259 -163.898 -46.8968 -163.898 -10.8114V-8.96087H-224.04V-12.6619C-224.04 -24.0736 -226.508 -34.4057 -231.442 -43.6584C-236.069 -52.9111 -243.162 -60.159 -252.723 -65.4021C-262.285 -70.9537 -274.313 -73.7295 -288.809 -73.7295C-310.398 -73.7295 -327.362 -67.0985 -339.699 -53.8363C-352.035 -40.5742 -358.204 -22.5315 -358.204 0.291805V79.8648C-358.204 102.38 -352.035 120.577 -339.699 134.456C-327.362 148.026 -310.09 154.811 -287.884 154.811C-265.677 154.811 -249.485 148.951 -239.307 137.231C-229.129 125.511 -224.04 110.707 -224.04 92.8185V88.1922H-300.837V36.3772H-163.898V202H-220.339V171.004H-228.666C-230.825 176.247 -234.372 181.798 -239.307 187.658C-243.933 193.518 -251.027 198.453 -260.588 202.463C-270.149 206.472 -283.257 208.477 -299.912 208.477ZM-23.2067 208.477C-39.553 208.477 -54.2031 205.701 -67.1568 200.149C-80.1106 194.289 -90.4427 185.962 -98.1533 175.167C-105.555 164.064 -109.256 150.648 -109.256 134.918C-109.256 119.189 -105.555 106.081 -98.1533 95.5943C-90.4427 84.7995 -79.9564 76.7805 -66.6942 71.5374C-53.1236 65.9858 -37.7025 63.21 -20.4309 63.21H42.4873V50.2562C42.4873 39.4614 39.0947 30.6714 32.3094 23.8861C25.5241 16.7924 14.7293 13.2455 -0.0749729 13.2455C-14.5708 13.2455 -25.3656 16.6382 -32.4593 23.4235C-39.553 29.9004 -44.1794 38.382 -46.3383 48.8683L-100.004 30.8256C-96.3027 19.1056 -90.4427 8.465 -82.4237 -1.09609C-74.0963 -10.9656 -63.1473 -18.8304 -49.5768 -24.6904C-35.6978 -30.8589 -18.8887 -33.9431 0.850296 -33.9431C31.0757 -33.9431 54.9784 -26.3867 72.5585 -11.274C90.1386 3.83866 98.9286 25.7366 98.9286 54.4199V140.007C98.9286 149.26 103.247 153.886 111.882 153.886H130.388V202H91.5265C80.1148 202 70.7079 199.224 63.3058 193.673C55.9037 188.121 52.2026 180.719 52.2026 171.466V171.004H43.4126C42.1789 174.705 39.4031 179.639 35.0852 185.808C30.7673 191.668 23.982 196.911 14.7293 201.537C5.47663 206.164 -7.16869 208.477 -23.2067 208.477ZM-13.0287 161.288C3.31767 161.288 16.5798 156.816 26.7578 147.872C37.2441 138.619 42.4873 126.437 42.4873 111.324V106.698H-16.2671C-27.0619 106.698 -35.5435 109.011 -41.712 113.637C-47.8804 118.263 -50.9647 124.74 -50.9647 133.068C-50.9647 141.395 -47.7262 148.18 -41.2494 153.423C-34.7725 158.667 -25.3656 161.288 -13.0287 161.288ZM270.269 208.477C252.072 208.477 234.955 204.005 218.917 195.06C203.187 185.808 190.542 172.391 180.981 154.811C171.42 137.231 166.639 115.95 166.639 90.968V83.5658C166.639 58.5836 171.42 37.3025 180.981 19.7224C190.542 2.14233 203.187 -11.1198 218.917 -20.0641C234.646 -29.3167 251.764 -33.9431 270.269 -33.9431C284.148 -33.9431 295.714 -32.2468 304.967 -28.8541C314.528 -25.7699 322.238 -21.7604 328.098 -16.8256C333.958 -11.8909 338.431 -6.64769 341.515 -1.09609H349.842V-121.843H408.134V202H350.767V174.242H342.44C337.197 182.878 329.024 190.743 317.92 197.836C307.126 204.93 291.242 208.477 270.269 208.477ZM287.849 157.587C305.738 157.587 320.696 151.881 332.725 140.47C344.753 128.75 350.767 111.786 350.767 89.5801V84.9537C350.767 62.7473 344.753 45.9383 332.725 34.5267C321.005 22.8066 306.046 16.9466 287.849 16.9466C269.961 16.9466 255.002 22.8066 242.974 34.5267C230.945 45.9383 224.931 62.7473 224.931 84.9537V89.5801C224.931 111.786 230.945 128.75 242.974 140.47C255.002 151.881 269.961 157.587 287.849 157.587ZM553.26 208.477C536.914 208.477 522.264 205.701 509.31 200.149C496.356 194.289 486.024 185.962 478.313 175.167C470.911 164.064 467.21 150.648 467.21 134.918C467.21 119.189 470.911 106.081 478.313 95.5943C486.024 84.7995 496.51 76.7805 509.772 71.5374C523.343 65.9858 538.764 63.21 556.036 63.21H618.954V50.2562C618.954 39.4614 615.561 30.6714 608.776 23.8861C601.991 16.7924 591.196 13.2455 576.392 13.2455C561.896 13.2455 551.101 16.6382 544.007 23.4235C536.914 29.9004 532.287 38.382 530.128 48.8683L476.463 30.8256C480.164 19.1056 486.024 8.465 494.043 -1.09609C502.37 -10.9656 513.319 -18.8304 526.89 -24.6904C540.769 -30.8589 557.578 -33.9431 577.317 -33.9431C607.542 -33.9431 631.445 -26.3867 649.025 -11.274C666.605 3.83866 675.395 25.7366 675.395 54.4199V140.007C675.395 149.26 679.713 153.886 688.349 153.886H706.854V202H667.993C656.581 202 647.175 199.224 639.772 193.673C632.37 188.121 628.669 180.719 628.669 171.466V171.004H619.879C618.645 174.705 615.87 179.639 611.552 185.808C607.234 191.668 600.449 196.911 591.196 201.537C581.943 206.164 569.298 208.477 553.26 208.477ZM563.438 161.288C579.784 161.288 593.046 156.816 603.224 147.872C613.711 138.619 618.954 126.437 618.954 111.324V106.698H560.199C549.405 106.698 540.923 109.011 534.755 113.637C528.586 118.263 525.502 124.74 525.502 133.068C525.502 141.395 528.74 148.18 535.217 153.423C541.694 158.667 551.101 161.288 563.438 161.288Z" fill="white"/>
</g>
<defs>
<filter id="filter0_b_533_781" x="-35" y="-35" width="343" height="343" filterUnits="userSpaceOnUse" color-interpolation-filters="sRGB">
<feFlood flood-opacity="0" result="BackgroundImageFix"/>
<feGaussianBlur in="BackgroundImageFix" stdDeviation="17.5"/>
<feComposite in2="SourceAlpha" operator="in" result="effect1_backgroundBlur_533_781"/>
<feBlend mode="normal" in="SourceGraphic" in2="effect1_backgroundBlur_533_781" result="shape"/>
</filter>
<linearGradient id="paint0_linear_533_781" x1="137" y1="-51.5" x2="137" y2="196.5" gradientUnits="userSpaceOnUse">
<stop stop-color="white"/>
<stop offset="1" stop-color="white"/>
</linearGradient>
<clipPath id="clip0_533_781">
<rect width="273" height="273" rx="136.5" fill="white"/>
</clipPath>
</defs>
</svg>
