<svg width="570" height="570" viewBox="0 0 570 570" fill="none" xmlns="http://www.w3.org/2000/svg">
<g clip-path="url(#clip0_533_776)">
<g filter="url(#filter0_b_533_776)">
<circle cx="285" cy="285" r="285" fill="#222222"/>
<circle cx="285" cy="285" r="284.5" stroke="url(#paint0_linear_533_776)" stroke-opacity="0.2"/>
</g>
<path d="M-151.912 357.477C-174.118 357.477 -194.32 352.542 -212.517 342.673C-230.406 332.495 -244.747 317.845 -255.542 298.722C-266.028 279.292 -271.271 255.698 -271.271 227.94V150.217C-271.271 108.58 -259.551 76.6584 -236.111 54.4519C-212.671 31.9371 -180.904 20.6797 -140.809 20.6797C-101.022 20.6797 -70.3343 31.3203 -48.7448 52.6014C-26.8468 73.5741 -15.8978 102.103 -15.8978 138.189V140.039H-76.0401V136.338C-76.0401 124.926 -78.5075 114.594 -83.4423 105.342C-88.0686 96.0889 -95.1623 88.841 -104.723 83.5979C-114.285 78.0463 -126.313 75.2705 -140.809 75.2705C-162.398 75.2705 -179.362 81.9015 -191.699 95.1637C-204.035 108.426 -210.204 126.469 -210.204 149.292V228.865C-210.204 251.38 -204.035 269.577 -191.699 283.456C-179.362 297.026 -162.09 303.811 -139.884 303.811C-117.677 303.811 -101.485 297.951 -91.307 286.231C-81.1291 274.511 -76.0401 259.707 -76.0401 241.818V237.192H-152.837V185.377H-15.8978V351H-72.3391V320.004H-80.6665C-82.8254 325.247 -86.3723 330.798 -91.307 336.658C-95.9334 342.518 -103.027 347.453 -112.588 351.463C-122.149 355.472 -135.257 357.477 -151.912 357.477ZM124.793 357.477C108.447 357.477 93.7969 354.701 80.8432 349.149C67.8894 343.289 57.5573 334.962 49.8467 324.167C42.4446 313.064 38.7435 299.648 38.7435 283.918C38.7435 268.189 42.4446 255.081 49.8467 244.594C57.5573 233.8 68.0436 225.781 81.3058 220.537C94.8764 214.986 110.298 212.21 127.569 212.21H190.487V199.256C190.487 188.461 187.095 179.671 180.309 172.886C173.524 165.792 162.729 162.246 147.925 162.246C133.429 162.246 122.634 165.638 115.541 172.423C108.447 178.9 103.821 187.382 101.662 197.868L47.9962 179.826C51.6973 168.106 57.5573 157.465 65.5763 147.904C73.9037 138.034 84.8527 130.17 98.4232 124.31C112.302 118.141 129.111 115.057 148.85 115.057C179.076 115.057 202.978 122.613 220.558 137.726C238.139 152.839 246.929 174.737 246.929 203.42V289.007C246.929 298.26 251.247 302.886 259.882 302.886H278.388V351H239.526C228.115 351 218.708 348.224 211.306 342.673C203.904 337.121 200.203 329.719 200.203 320.466V320.004H191.413C190.179 323.705 187.403 328.639 183.085 334.808C178.767 340.668 171.982 345.911 162.729 350.537C153.477 355.164 140.831 357.477 124.793 357.477ZM134.971 310.288C151.318 310.288 164.58 305.816 174.758 296.872C185.244 287.619 190.487 275.437 190.487 260.324V255.698H131.733C120.938 255.698 112.456 258.011 106.288 262.637C100.12 267.263 97.0353 273.74 97.0353 282.068C97.0353 290.395 100.274 297.18 106.751 302.423C113.228 307.667 122.634 310.288 134.971 310.288ZM418.269 357.477C400.072 357.477 382.955 353.005 366.917 344.06C351.187 334.808 338.542 321.391 328.981 303.811C319.42 286.231 314.639 264.95 314.639 239.968V232.566C314.639 207.584 319.42 186.302 328.981 168.722C338.542 151.142 351.187 137.88 366.917 128.936C382.646 119.683 399.764 115.057 418.269 115.057C432.148 115.057 443.714 116.753 452.967 120.146C462.528 123.23 470.238 127.24 476.098 132.174C481.958 137.109 486.431 142.352 489.515 147.904H497.842V27.1566H556.134V351H498.767V323.242H490.44C485.197 331.878 477.024 339.743 465.92 346.836C455.126 353.93 439.242 357.477 418.269 357.477ZM435.849 306.587C453.738 306.587 468.696 300.881 480.725 289.47C492.753 277.75 498.767 260.786 498.767 238.58V233.954C498.767 211.747 492.753 194.938 480.725 183.527C469.005 171.807 454.046 165.947 435.849 165.947C417.961 165.947 403.002 171.807 390.974 183.527C378.945 194.938 372.931 211.747 372.931 233.954V238.58C372.931 260.786 378.945 277.75 390.974 289.47C403.002 300.881 417.961 306.587 435.849 306.587ZM701.26 357.477C684.914 357.477 670.264 354.701 657.31 349.149C644.356 343.289 634.024 334.962 626.313 324.167C618.911 313.064 615.21 299.648 615.21 283.918C615.21 268.189 618.911 255.081 626.313 244.594C634.024 233.8 644.51 225.781 657.772 220.537C671.343 214.986 686.764 212.21 704.036 212.21H766.954V199.256C766.954 188.461 763.561 179.671 756.776 172.886C749.991 165.792 739.196 162.246 724.392 162.246C709.896 162.246 699.101 165.638 692.007 172.423C684.914 178.9 680.287 187.382 678.128 197.868L624.463 179.826C628.164 168.106 634.024 157.465 642.043 147.904C650.37 138.034 661.319 130.17 674.89 124.31C688.769 118.141 705.578 115.057 725.317 115.057C755.542 115.057 779.445 122.613 797.025 137.726C814.605 152.839 823.395 174.737 823.395 203.42V289.007C823.395 298.26 827.713 302.886 836.349 302.886H854.854V351H815.993C804.581 351 795.175 348.224 787.772 342.673C780.37 337.121 776.669 329.719 776.669 320.466V320.004H767.879C766.645 323.705 763.87 328.639 759.552 334.808C755.234 340.668 748.449 345.911 739.196 350.537C729.943 355.164 717.298 357.477 701.26 357.477ZM711.438 310.288C727.784 310.288 741.046 305.816 751.224 296.872C761.711 287.619 766.954 275.437 766.954 260.324V255.698H708.199C697.405 255.698 688.923 258.011 682.755 262.637C676.586 267.263 673.502 273.74 673.502 282.068C673.502 290.395 676.74 297.18 683.217 302.423C689.694 307.667 699.101 310.288 711.438 310.288Z" fill="white"/>
<path d="M-404.346 632V614.827H-390.726V545.543H-404.346V528.37H-351.051C-344.734 528.37 -339.257 529.456 -334.618 531.627C-329.881 533.7 -326.229 536.71 -323.663 540.658C-320.998 544.507 -319.666 549.145 -319.666 554.574V556.054C-319.666 560.791 -320.554 564.69 -322.331 567.749C-324.107 570.71 -326.229 573.03 -328.696 574.707C-331.065 576.287 -333.335 577.422 -335.506 578.112V580.777C-333.335 581.369 -330.966 582.504 -328.4 584.182C-325.834 585.761 -323.663 588.081 -321.886 591.14C-320.011 594.2 -319.074 598.197 -319.074 603.132V604.612C-319.074 610.336 -320.406 615.271 -323.071 619.416C-325.736 623.463 -329.437 626.572 -334.174 628.743C-338.813 630.914 -344.241 632 -350.459 632H-404.346ZM-371.185 614.235H-352.827C-348.584 614.235 -345.179 613.199 -342.612 611.126C-339.948 609.053 -338.615 606.093 -338.615 602.243V600.763C-338.615 596.914 -339.898 593.953 -342.464 591.88C-345.031 589.808 -348.485 588.772 -352.827 588.772H-371.185V614.235ZM-371.185 571.006H-353.124C-349.077 571.006 -345.771 569.97 -343.205 567.898C-340.54 565.825 -339.207 562.963 -339.207 559.311V557.831C-339.207 554.08 -340.491 551.218 -343.057 549.244C-345.623 547.172 -348.978 546.135 -353.124 546.135H-371.185V571.006ZM-299.523 632V558.571H-281.166V566.861H-278.501C-277.415 563.9 -275.639 561.729 -273.171 560.347C-270.605 558.966 -267.644 558.275 -264.289 558.275H-255.406V574.856H-264.585C-269.322 574.856 -273.221 576.139 -276.28 578.705C-279.34 581.172 -280.869 585.021 -280.869 590.252V632H-299.523ZM-237.865 632V558.571H-219.212V632H-237.865ZM-228.539 549.984C-231.894 549.984 -234.756 548.899 -237.125 546.727C-239.395 544.556 -240.53 541.694 -240.53 538.141C-240.53 534.588 -239.395 531.726 -237.125 529.554C-234.756 527.383 -231.894 526.297 -228.539 526.297C-225.084 526.297 -222.222 527.383 -219.952 529.554C-217.682 531.726 -216.547 534.588 -216.547 538.141C-216.547 541.694 -217.682 544.556 -219.952 546.727C-222.222 548.899 -225.084 549.984 -228.539 549.984ZM-165.972 634.073C-171.795 634.073 -177.273 632.642 -182.405 629.779C-187.438 626.819 -191.485 622.525 -194.544 616.9C-197.604 611.274 -199.134 604.464 -199.134 596.47V594.101C-199.134 586.107 -197.604 579.297 -194.544 573.671C-191.485 568.046 -187.438 563.802 -182.405 560.939C-177.371 557.979 -171.894 556.498 -165.972 556.498C-161.531 556.498 -157.83 557.041 -154.869 558.127C-151.809 559.114 -149.342 560.397 -147.467 561.976C-145.592 563.555 -144.16 565.233 -143.174 567.009H-140.509V528.37H-121.855V632H-140.213V623.117H-142.877C-144.555 625.881 -147.171 628.398 -150.724 630.668C-154.178 632.938 -159.261 634.073 -165.972 634.073ZM-160.346 617.788C-154.622 617.788 -149.835 615.962 -145.986 612.31C-142.137 608.56 -140.213 603.132 -140.213 596.026V594.545C-140.213 587.439 -142.137 582.06 -145.986 578.409C-149.737 574.658 -154.523 572.783 -160.346 572.783C-166.071 572.783 -170.857 574.658 -174.707 578.409C-178.556 582.06 -180.48 587.439 -180.48 594.545V596.026C-180.48 603.132 -178.556 608.56 -174.707 612.31C-170.857 615.962 -166.071 617.788 -160.346 617.788ZM-101.767 595.581V593.213C-101.767 585.515 -100.237 578.951 -97.1773 573.523C-94.1178 567.996 -90.0713 563.802 -85.0378 560.939C-79.9057 557.979 -74.3294 556.498 -68.309 556.498C-61.5977 556.498 -56.5149 557.683 -53.0606 560.051C-49.6063 562.42 -47.0896 564.887 -45.5104 567.453H-42.8457V558.571H-24.4884V645.028C-24.4884 650.061 -25.9688 654.058 -28.9296 657.019C-31.8905 660.079 -35.8383 661.609 -40.7731 661.609H-89.9232V645.324H-47.2869C-44.5235 645.324 -43.1417 643.843 -43.1417 640.883V621.785H-45.8065C-46.7935 623.364 -48.1752 624.993 -49.9517 626.67C-51.7282 628.25 -54.0969 629.582 -57.0578 630.668C-60.0186 631.753 -63.769 632.296 -68.309 632.296C-74.3294 632.296 -79.9057 630.865 -85.0378 628.003C-90.0713 625.042 -94.1178 620.847 -97.1773 615.419C-100.237 609.892 -101.767 603.28 -101.767 595.581ZM-62.9795 616.011C-57.2552 616.011 -52.4684 614.186 -48.6193 610.534C-44.7702 606.882 -42.8457 601.75 -42.8457 595.137V593.657C-42.8457 586.946 -44.7702 581.814 -48.6193 578.26C-52.3697 574.609 -57.1565 572.783 -62.9795 572.783C-68.7038 572.783 -73.4905 574.609 -77.3396 578.26C-81.1887 581.814 -83.1133 586.946 -83.1133 593.657V595.137C-83.1133 601.75 -81.1887 606.882 -77.3396 610.534C-73.4905 614.186 -68.7038 616.011 -62.9795 616.011ZM-0.846636 632V558.571H17.8067V632H-0.846636ZM8.48006 549.984C5.12442 549.984 2.26226 548.899 -0.106422 546.727C-2.37641 544.556 -3.5114 541.694 -3.5114 538.141C-3.5114 534.588 -2.37641 531.726 -0.106422 529.554C2.26226 527.383 5.12442 526.297 8.48006 526.297C11.9344 526.297 14.7965 527.383 17.0665 529.554C19.3365 531.726 20.4715 534.588 20.4715 538.141C20.4715 541.694 19.3365 544.556 17.0665 546.727C14.7965 548.899 11.9344 549.984 8.48006 549.984ZM41.4381 632V558.571H59.7954V568.194H62.4601C63.6445 565.628 65.8651 563.209 69.122 560.939C72.379 558.571 77.3137 557.386 83.9263 557.386C89.6506 557.386 94.6347 558.719 98.8786 561.384C103.221 563.95 106.577 567.552 108.946 572.191C111.314 576.731 112.499 582.06 112.499 588.179V632H93.8452V589.66C93.8452 584.133 92.4635 579.988 89.7 577.224C87.0352 574.461 83.1861 573.079 78.1527 573.079C72.4283 573.079 67.9871 575.004 64.8288 578.853C61.6706 582.603 60.0914 587.883 60.0914 594.693V632H41.4381ZM132.071 595.581V593.213C132.071 585.515 133.601 578.951 136.661 573.523C139.72 567.996 143.767 563.802 148.8 560.939C153.932 557.979 159.509 556.498 165.529 556.498C172.24 556.498 177.323 557.683 180.777 560.051C184.232 562.42 186.749 564.887 188.328 567.453H190.992V558.571H209.35V645.028C209.35 650.061 207.869 654.058 204.908 657.019C201.948 660.079 198 661.609 193.065 661.609H143.915V645.324H186.551C189.315 645.324 190.696 643.843 190.696 640.883V621.785H188.032C187.045 623.364 185.663 624.993 183.886 626.67C182.11 628.25 179.741 629.582 176.78 630.668C173.819 631.753 170.069 632.296 165.529 632.296C159.509 632.296 153.932 630.865 148.8 628.003C143.767 625.042 139.72 620.847 136.661 615.419C133.601 609.892 132.071 603.28 132.071 595.581ZM170.859 616.011C176.583 616.011 181.37 614.186 185.219 610.534C189.068 606.882 190.992 601.75 190.992 595.137V593.657C190.992 586.946 189.068 581.814 185.219 578.26C181.468 574.609 176.682 572.783 170.859 572.783C165.134 572.783 160.348 574.609 156.498 578.26C152.649 581.814 150.725 586.946 150.725 593.657V595.137C150.725 601.75 152.649 606.882 156.498 610.534C160.348 614.186 165.134 616.011 170.859 616.011ZM301.669 632C296.833 632 292.886 630.52 289.826 627.559C286.865 624.499 285.385 620.453 285.385 615.419V573.967H267.027V558.571H285.385V535.772H304.038V558.571H324.172V573.967H304.038V612.162C304.038 615.123 305.42 616.604 308.183 616.604H322.395V632H301.669ZM344.018 632V528.37H362.671V567.601H365.336C366.125 566.022 367.359 564.443 369.037 562.864C370.715 561.285 372.935 560.002 375.699 559.015C378.561 557.929 382.163 557.386 386.506 557.386C392.23 557.386 397.214 558.719 401.458 561.384C405.801 563.95 409.157 567.552 411.525 572.191C413.894 576.731 415.078 582.06 415.078 588.179V632H396.425V589.66C396.425 584.133 395.043 579.988 392.28 577.224C389.615 574.461 385.766 573.079 380.732 573.079C375.008 573.079 370.567 575.004 367.408 578.853C364.25 582.603 362.671 587.883 362.671 594.693V632H344.018ZM471.662 634.073C464.358 634.073 457.894 632.543 452.268 629.483C446.741 626.325 442.399 621.933 439.24 616.307C436.181 610.583 434.651 603.872 434.651 596.174V594.397C434.651 586.699 436.181 580.037 439.24 574.411C442.3 568.687 446.593 564.295 452.12 561.236C457.647 558.077 464.062 556.498 471.366 556.498C478.57 556.498 484.838 558.127 490.167 561.384C495.497 564.542 499.642 568.983 502.603 574.707C505.564 580.333 507.044 586.896 507.044 594.397V600.763H453.601C453.798 605.796 455.673 609.892 459.226 613.051C462.779 616.209 467.122 617.788 472.254 617.788C477.485 617.788 481.334 616.653 483.801 614.383C486.269 612.113 488.144 609.596 489.427 606.833L504.675 614.827C503.294 617.393 501.27 620.206 498.606 623.265C496.039 626.226 492.585 628.792 488.243 630.964C483.9 633.036 478.373 634.073 471.662 634.073ZM453.749 586.847H488.095C487.7 582.603 485.973 579.198 482.913 576.632C479.952 574.066 476.054 572.783 471.218 572.783C466.184 572.783 462.187 574.066 459.226 576.632C456.265 579.198 454.439 582.603 453.749 586.847ZM602.392 634.073C595.286 634.073 588.821 632.493 582.998 629.335C577.274 626.078 572.684 621.39 569.23 615.271C565.874 609.053 564.197 601.503 564.197 592.621V567.749C564.197 554.426 567.947 544.211 575.448 537.105C582.949 529.9 593.114 526.297 605.945 526.297C618.676 526.297 628.496 529.702 635.405 536.512C642.412 543.224 645.916 552.353 645.916 563.9V564.493H626.671V563.308C626.671 559.656 625.881 556.35 624.302 553.389C622.821 550.428 620.551 548.109 617.492 546.431C614.432 544.655 610.583 543.767 605.945 543.767C599.036 543.767 593.608 545.888 589.66 550.132C585.712 554.376 583.738 560.15 583.738 567.453V592.917C583.738 600.121 585.712 605.944 589.66 610.386C593.608 614.728 599.135 616.9 606.241 616.9C613.347 616.9 618.528 615.024 621.785 611.274C625.042 607.524 626.671 602.786 626.671 597.062V595.581H602.096V579.001H645.916V632H627.855V622.081H625.19C624.499 623.759 623.364 625.535 621.785 627.411C620.305 629.286 618.035 630.865 614.975 632.148C611.916 633.431 607.721 634.073 602.392 634.073ZM690.937 634.073C685.706 634.073 681.018 633.184 676.873 631.408C672.728 629.533 669.422 626.868 666.954 623.414C664.586 619.86 663.401 615.567 663.401 610.534C663.401 605.5 664.586 601.306 666.954 597.95C669.422 594.496 672.777 591.93 677.021 590.252C681.364 588.475 686.299 587.587 691.826 587.587H711.959V583.442C711.959 579.988 710.874 577.175 708.702 575.004C706.531 572.734 703.077 571.599 698.339 571.599C693.701 571.599 690.246 572.684 687.976 574.856C685.706 576.928 684.226 579.642 683.535 582.998L666.362 577.224C667.547 573.474 669.422 570.069 671.988 567.009C674.653 563.851 678.156 561.334 682.499 559.459C686.94 557.485 692.319 556.498 698.636 556.498C708.308 556.498 715.957 558.916 721.582 563.752C727.208 568.588 730.021 575.596 730.021 584.774V612.162C730.021 615.123 731.402 616.604 734.166 616.604H740.088V632H727.652C724 632 720.99 631.112 718.621 629.335C716.253 627.559 715.068 625.19 715.068 622.229V622.081H712.255C711.861 623.265 710.972 624.845 709.591 626.819C708.209 628.694 706.038 630.372 703.077 631.852C700.116 633.332 696.069 634.073 690.937 634.073ZM694.194 618.972C699.425 618.972 703.669 617.541 706.926 614.679C710.282 611.718 711.959 607.82 711.959 602.984V601.503H693.158C689.704 601.503 686.99 602.243 685.016 603.724C683.042 605.204 682.055 607.277 682.055 609.942C682.055 612.606 683.091 614.778 685.164 616.456C687.236 618.133 690.246 618.972 694.194 618.972ZM756.687 661.609V558.571H775.044V567.453H777.709C779.387 564.591 782.002 562.074 785.555 559.903C789.108 557.633 794.191 556.498 800.803 556.498C806.725 556.498 812.203 557.979 817.236 560.939C822.27 563.802 826.316 568.046 829.376 573.671C832.435 579.297 833.965 586.107 833.965 594.101V596.47C833.965 604.464 832.435 611.274 829.376 616.9C826.316 622.525 822.27 626.819 817.236 629.779C812.203 632.642 806.725 634.073 800.803 634.073C796.362 634.073 792.612 633.53 789.552 632.444C786.591 631.457 784.173 630.174 782.298 628.595C780.522 626.917 779.091 625.239 778.005 623.562H775.34V661.609H756.687ZM795.178 617.788C801.001 617.788 805.788 615.962 809.538 612.31C813.387 608.56 815.312 603.132 815.312 596.026V594.545C815.312 587.439 813.387 582.06 809.538 578.409C805.689 574.658 800.902 572.783 795.178 572.783C789.454 572.783 784.667 574.658 780.818 578.409C776.969 582.06 775.044 587.439 775.044 594.545V596.026C775.044 603.132 776.969 608.56 780.818 612.31C784.667 615.962 789.454 617.788 795.178 617.788ZM864.882 634.073C860.934 634.073 857.578 632.79 854.815 630.223C852.15 627.559 850.818 624.154 850.818 620.009C850.818 615.863 852.15 612.508 854.815 609.942C857.578 607.277 860.934 605.944 864.882 605.944C868.928 605.944 872.284 607.277 874.949 609.942C877.613 612.508 878.946 615.863 878.946 620.009C878.946 624.154 877.613 627.559 874.949 630.223C872.284 632.79 868.928 634.073 864.882 634.073ZM911.937 634.073C907.989 634.073 904.634 632.79 901.87 630.223C899.206 627.559 897.873 624.154 897.873 620.009C897.873 615.863 899.206 612.508 901.87 609.942C904.634 607.277 907.989 605.944 911.937 605.944C915.984 605.944 919.339 607.277 922.004 609.942C924.669 612.508 926.001 615.863 926.001 620.009C926.001 624.154 924.669 627.559 922.004 630.223C919.339 632.79 915.984 634.073 911.937 634.073ZM958.993 634.073C955.045 634.073 951.689 632.79 948.926 630.223C946.261 627.559 944.929 624.154 944.929 620.009C944.929 615.863 946.261 612.508 948.926 609.942C951.689 607.277 955.045 605.944 958.993 605.944C963.039 605.944 966.395 607.277 969.06 609.942C971.725 612.508 973.057 615.863 973.057 620.009C973.057 624.154 971.725 627.559 969.06 630.223C966.395 632.79 963.039 634.073 958.993 634.073Z" fill="white"/>
</g>
<defs>
<filter id="filter0_b_533_776" x="-35" y="-35" width="640" height="640" filterUnits="userSpaceOnUse" color-interpolation-filters="sRGB">
<feFlood flood-opacity="0" result="BackgroundImageFix"/>
<feGaussianBlur in="BackgroundImageFix" stdDeviation="17.5"/>
<feComposite in2="SourceAlpha" operator="in" result="effect1_backgroundBlur_533_776"/>
<feBlend mode="normal" in="SourceGraphic" in2="effect1_backgroundBlur_533_776" result="shape"/>
</filter>
<linearGradient id="paint0_linear_533_776" x1="473" y1="1.77465e-06" x2="199" y2="357.5" gradientUnits="userSpaceOnUse">
<stop stop-color="white"/>
<stop offset="1" stop-color="white"/>
</linearGradient>
<clipPath id="clip0_533_776">
<rect width="570" height="570" rx="285" fill="white"/>
</clipPath>
</defs>
</svg>
