<svg width="801" height="801" viewBox="0 0 801 801" fill="none" xmlns="http://www.w3.org/2000/svg">
<g clip-path="url(#clip0_533_771)">
<g filter="url(#filter0_b_533_771)">
<circle cx="400.5" cy="400.5" r="400.5" fill="#212121" fill-opacity="0.96"/>
<circle cx="400.5" cy="400.5" r="400" stroke="url(#paint0_linear_533_771)" stroke-opacity="0.2"/>
</g>
<path d="M-35.912 472.477C-58.1184 472.477 -78.3201 467.542 -96.517 457.673C-114.406 447.495 -128.747 432.845 -139.542 413.722C-150.028 394.292 -155.271 370.698 -155.271 342.94V265.217C-155.271 223.58 -143.551 191.658 -120.111 169.452C-96.6712 146.937 -64.9037 135.68 -24.8088 135.68C14.9777 135.68 45.6657 146.32 67.2552 167.601C89.1532 188.574 100.102 217.103 100.102 253.189V255.039H39.9599V251.338C39.9599 239.926 37.4925 229.594 32.5577 220.342C27.9314 211.089 20.8377 203.841 11.2766 198.598C1.71549 193.046 -10.313 190.27 -24.8088 190.27C-46.3984 190.27 -63.3616 196.902 -75.6985 210.164C-88.0354 223.426 -94.2038 241.469 -94.2038 264.292V343.865C-94.2038 366.38 -88.0354 384.577 -75.6985 398.456C-63.3616 412.026 -46.09 418.811 -23.8836 418.811C-1.67715 418.811 14.515 412.951 24.693 401.231C34.8709 389.511 39.9599 374.707 39.9599 356.818V352.192H-36.8373V300.377H100.102V466H43.6609V435.004H35.3335C33.1746 440.247 29.6277 445.798 24.693 451.658C20.0666 457.518 12.9729 462.453 3.41181 466.463C-6.14927 470.472 -19.2572 472.477 -35.912 472.477ZM240.793 472.477C224.447 472.477 209.797 469.701 196.843 464.149C183.889 458.289 173.557 449.962 165.847 439.167C158.445 428.064 154.744 414.648 154.744 398.918C154.744 383.189 158.445 370.081 165.847 359.594C173.557 348.8 184.044 340.781 197.306 335.537C210.876 329.986 226.298 327.21 243.569 327.21H306.487V314.256C306.487 303.461 303.095 294.671 296.309 287.886C289.524 280.792 278.729 277.246 263.925 277.246C249.429 277.246 238.634 280.638 231.541 287.423C224.447 293.9 219.821 302.382 217.662 312.868L163.996 294.826C167.697 283.106 173.557 272.465 181.576 262.904C189.904 253.034 200.853 245.17 214.423 239.31C228.302 233.141 245.111 230.057 264.85 230.057C295.076 230.057 318.978 237.613 336.558 252.726C354.139 267.839 362.929 289.737 362.929 318.42V404.007C362.929 413.26 367.247 417.886 375.882 417.886H394.388V466H355.526C344.115 466 334.708 463.224 327.306 457.673C319.904 452.121 316.203 444.719 316.203 435.466V435.004H307.413C306.179 438.705 303.403 443.639 299.085 449.808C294.767 455.668 287.982 460.911 278.729 465.537C269.477 470.164 256.831 472.477 240.793 472.477ZM250.971 425.288C267.318 425.288 280.58 420.816 290.758 411.872C301.244 402.619 306.487 390.437 306.487 375.324V370.698H247.733C236.938 370.698 228.456 373.011 222.288 377.637C216.12 382.263 213.035 388.74 213.035 397.068C213.035 405.395 216.274 412.18 222.751 417.423C229.228 422.667 238.634 425.288 250.971 425.288ZM534.269 472.477C516.072 472.477 498.955 468.005 482.917 459.06C467.187 449.808 454.542 436.391 444.981 418.811C435.42 401.231 430.639 379.95 430.639 354.968V347.566C430.639 322.584 435.42 301.302 444.981 283.722C454.542 266.142 467.187 252.88 482.917 243.936C498.646 234.683 515.764 230.057 534.269 230.057C548.148 230.057 559.714 231.753 568.967 235.146C578.528 238.23 586.238 242.24 592.098 247.174C597.958 252.109 602.431 257.352 605.515 262.904H613.842V142.157H672.134V466H614.767V438.242H606.44C601.197 446.878 593.024 454.743 581.92 461.836C571.126 468.93 555.242 472.477 534.269 472.477ZM551.849 421.587C569.738 421.587 584.696 415.881 596.725 404.47C608.753 392.75 614.767 375.786 614.767 353.58V348.954C614.767 326.747 608.753 309.938 596.725 298.527C585.005 286.807 570.046 280.947 551.849 280.947C533.961 280.947 519.002 286.807 506.974 298.527C494.945 309.938 488.931 326.747 488.931 348.954V353.58C488.931 375.786 494.945 392.75 506.974 404.47C519.002 415.881 533.961 421.587 551.849 421.587ZM817.26 472.477C800.914 472.477 786.264 469.701 773.31 464.149C760.356 458.289 750.024 449.962 742.313 439.167C734.911 428.064 731.21 414.648 731.21 398.918C731.21 383.189 734.911 370.081 742.313 359.594C750.024 348.8 760.51 340.781 773.772 335.537C787.343 329.986 802.764 327.21 820.036 327.21H882.954V314.256C882.954 303.461 879.561 294.671 872.776 287.886C865.991 280.792 855.196 277.246 840.392 277.246C825.896 277.246 815.101 280.638 808.007 287.423C800.914 293.9 796.287 302.382 794.128 312.868L740.463 294.826C744.164 283.106 750.024 272.465 758.043 262.904C766.37 253.034 777.319 245.17 790.89 239.31C804.769 233.141 821.578 230.057 841.317 230.057C871.542 230.057 895.445 237.613 913.025 252.726C930.605 267.839 939.395 289.737 939.395 318.42V404.007C939.395 413.26 943.713 417.886 952.349 417.886H970.854V466H931.993C920.581 466 911.175 463.224 903.772 457.673C896.37 452.121 892.669 444.719 892.669 435.466V435.004H883.879C882.645 438.705 879.87 443.639 875.552 449.808C871.234 455.668 864.449 460.911 855.196 465.537C845.943 470.164 833.298 472.477 817.26 472.477ZM827.438 425.288C843.784 425.288 857.046 420.816 867.224 411.872C877.711 402.619 882.954 390.437 882.954 375.324V370.698H824.199C813.405 370.698 804.923 373.011 798.755 377.637C792.586 382.263 789.502 388.74 789.502 397.068C789.502 405.395 792.74 412.18 799.217 417.423C805.694 422.667 815.101 425.288 827.438 425.288Z" fill="white"/>
<path d="M-288.346 747V729.827H-274.726V660.543H-288.346V643.37H-235.051C-228.734 643.37 -223.257 644.456 -218.618 646.627C-213.881 648.7 -210.229 651.71 -207.663 655.658C-204.998 659.507 -203.666 664.145 -203.666 669.574V671.054C-203.666 675.791 -204.554 679.69 -206.331 682.749C-208.107 685.71 -210.229 688.03 -212.696 689.707C-215.065 691.287 -217.335 692.422 -219.506 693.112V695.777C-217.335 696.369 -214.966 697.504 -212.4 699.182C-209.834 700.761 -207.663 703.081 -205.886 706.14C-204.011 709.2 -203.074 713.197 -203.074 718.132V719.612C-203.074 725.336 -204.406 730.271 -207.071 734.416C-209.736 738.463 -213.437 741.572 -218.174 743.743C-222.813 745.914 -228.241 747 -234.459 747H-288.346ZM-255.185 729.235H-236.827C-232.584 729.235 -229.179 728.199 -226.612 726.126C-223.948 724.053 -222.615 721.093 -222.615 717.243V715.763C-222.615 711.914 -223.898 708.953 -226.464 706.88C-229.031 704.808 -232.485 703.772 -236.827 703.772H-255.185V729.235ZM-255.185 686.006H-237.124C-233.077 686.006 -229.771 684.97 -227.205 682.898C-224.54 680.825 -223.207 677.963 -223.207 674.311V672.831C-223.207 669.08 -224.491 666.218 -227.057 664.244C-229.623 662.172 -232.978 661.135 -237.124 661.135H-255.185V686.006ZM-183.523 747V673.571H-165.166V681.861H-162.501C-161.415 678.9 -159.639 676.729 -157.171 675.347C-154.605 673.966 -151.644 673.275 -148.289 673.275H-139.406V689.856H-148.585C-153.322 689.856 -157.221 691.139 -160.28 693.705C-163.34 696.172 -164.869 700.021 -164.869 705.252V747H-183.523ZM-121.865 747V673.571H-103.212V747H-121.865ZM-112.539 664.984C-115.894 664.984 -118.756 663.899 -121.125 661.727C-123.395 659.556 -124.53 656.694 -124.53 653.141C-124.53 649.588 -123.395 646.726 -121.125 644.554C-118.756 642.383 -115.894 641.297 -112.539 641.297C-109.084 641.297 -106.222 642.383 -103.952 644.554C-101.682 646.726 -100.547 649.588 -100.547 653.141C-100.547 656.694 -101.682 659.556 -103.952 661.727C-106.222 663.899 -109.084 664.984 -112.539 664.984ZM-49.9721 749.073C-55.7951 749.073 -61.2727 747.642 -66.4048 744.779C-71.4383 741.819 -75.4848 737.525 -78.5443 731.9C-81.6039 726.274 -83.1337 719.464 -83.1337 711.47V709.101C-83.1337 701.107 -81.6039 694.297 -78.5443 688.671C-75.4848 683.046 -71.4383 678.802 -66.4048 675.939C-61.3714 672.979 -55.8938 671.498 -49.9721 671.498C-45.5308 671.498 -41.8297 672.041 -38.8689 673.127C-35.8093 674.114 -33.342 675.397 -31.4667 676.976C-29.5915 678.555 -28.1605 680.233 -27.1735 682.009H-24.5087V643.37H-5.85536V747H-24.2127V738.117H-26.8774C-28.5552 740.881 -31.1707 743.398 -34.7237 745.668C-38.178 747.938 -43.2608 749.073 -49.9721 749.073ZM-44.3465 732.788C-38.6221 732.788 -33.8354 730.962 -29.9863 727.31C-26.1372 723.56 -24.2127 718.132 -24.2127 711.026V709.545C-24.2127 702.439 -26.1372 697.06 -29.9863 693.409C-33.7367 689.658 -38.5234 687.783 -44.3465 687.783C-50.0708 687.783 -54.8575 689.658 -58.7066 693.409C-62.5557 697.06 -64.4803 702.439 -64.4803 709.545V711.026C-64.4803 718.132 -62.5557 723.56 -58.7066 727.31C-54.8575 730.962 -50.0708 732.788 -44.3465 732.788ZM14.2333 710.581V708.213C14.2333 700.515 15.7631 693.951 18.8227 688.523C21.8822 682.996 25.9287 678.802 30.9622 675.939C36.0943 672.979 41.6706 671.498 47.691 671.498C54.4023 671.498 59.4851 672.683 62.9394 675.051C66.3937 677.42 68.9104 679.887 70.4896 682.453H73.1543V673.571H91.5116V760.028C91.5116 765.061 90.0312 769.058 87.0704 772.019C84.1095 775.079 80.1617 776.609 75.2269 776.609H26.0768V760.324H68.7131C71.4765 760.324 72.8583 758.843 72.8583 755.883V736.785H70.1935C69.2065 738.364 67.8248 739.993 66.0483 741.67C64.2718 743.25 61.9031 744.582 58.9422 745.668C55.9814 746.753 52.231 747.296 47.691 747.296C41.6706 747.296 36.0943 745.865 30.9622 743.003C25.9287 740.042 21.8822 735.847 18.8227 730.419C15.7631 724.892 14.2333 718.28 14.2333 710.581ZM53.0205 731.011C58.7448 731.011 63.5316 729.186 67.3807 725.534C71.2298 721.882 73.1543 716.75 73.1543 710.137V708.657C73.1543 701.946 71.2298 696.814 67.3807 693.26C63.6303 689.609 58.8435 687.783 53.0205 687.783C47.2962 687.783 42.5095 689.609 38.6604 693.26C34.8113 696.814 32.8867 701.946 32.8867 708.657V710.137C32.8867 716.75 34.8113 721.882 38.6604 725.534C42.5095 729.186 47.2962 731.011 53.0205 731.011ZM115.153 747V673.571H133.807V747H115.153ZM124.48 664.984C121.124 664.984 118.262 663.899 115.894 661.727C113.624 659.556 112.489 656.694 112.489 653.141C112.489 649.588 113.624 646.726 115.894 644.554C118.262 642.383 121.124 641.297 124.48 641.297C127.934 641.297 130.797 642.383 133.067 644.554C135.337 646.726 136.472 649.588 136.472 653.141C136.472 656.694 135.337 659.556 133.067 661.727C130.797 663.899 127.934 664.984 124.48 664.984ZM157.438 747V673.571H175.795V683.194H178.46C179.644 680.628 181.865 678.209 185.122 675.939C188.379 673.571 193.314 672.386 199.926 672.386C205.651 672.386 210.635 673.719 214.879 676.384C219.221 678.95 222.577 682.552 224.946 687.191C227.314 691.731 228.499 697.06 228.499 703.179V747H209.845V704.66C209.845 699.133 208.463 694.988 205.7 692.224C203.035 689.461 199.186 688.079 194.153 688.079C188.428 688.079 183.987 690.004 180.829 693.853C177.671 697.603 176.091 702.883 176.091 709.693V747H157.438ZM248.071 710.581V708.213C248.071 700.515 249.601 693.951 252.661 688.523C255.72 682.996 259.767 678.802 264.8 675.939C269.932 672.979 275.509 671.498 281.529 671.498C288.24 671.498 293.323 672.683 296.777 675.051C300.232 677.42 302.749 679.887 304.328 682.453H306.992V673.571H325.35V760.028C325.35 765.061 323.869 769.058 320.908 772.019C317.948 775.079 314 776.609 309.065 776.609H259.915V760.324H302.551C305.315 760.324 306.696 758.843 306.696 755.883V736.785H304.032C303.045 738.364 301.663 739.993 299.886 741.67C298.11 743.25 295.741 744.582 292.78 745.668C289.819 746.753 286.069 747.296 281.529 747.296C275.509 747.296 269.932 745.865 264.8 743.003C259.767 740.042 255.72 735.847 252.661 730.419C249.601 724.892 248.071 718.28 248.071 710.581ZM286.859 731.011C292.583 731.011 297.37 729.186 301.219 725.534C305.068 721.882 306.992 716.75 306.992 710.137V708.657C306.992 701.946 305.068 696.814 301.219 693.26C297.468 689.609 292.682 687.783 286.859 687.783C281.134 687.783 276.348 689.609 272.498 693.26C268.649 696.814 266.725 701.946 266.725 708.657V710.137C266.725 716.75 268.649 721.882 272.498 725.534C276.348 729.186 281.134 731.011 286.859 731.011ZM417.669 747C412.833 747 408.886 745.52 405.826 742.559C402.865 739.499 401.385 735.453 401.385 730.419V688.967H383.027V673.571H401.385V650.772H420.038V673.571H440.172V688.967H420.038V727.162C420.038 730.123 421.42 731.604 424.183 731.604H438.395V747H417.669ZM460.018 747V643.37H478.671V682.601H481.336C482.125 681.022 483.359 679.443 485.037 677.864C486.715 676.285 488.935 675.002 491.699 674.015C494.561 672.929 498.163 672.386 502.506 672.386C508.23 672.386 513.214 673.719 517.458 676.384C521.801 678.95 525.157 682.552 527.525 687.191C529.894 691.731 531.078 697.06 531.078 703.179V747H512.425V704.66C512.425 699.133 511.043 694.988 508.28 692.224C505.615 689.461 501.766 688.079 496.732 688.079C491.008 688.079 486.567 690.004 483.408 693.853C480.25 697.603 478.671 702.883 478.671 709.693V747H460.018ZM587.662 749.073C580.358 749.073 573.894 747.543 568.268 744.483C562.741 741.325 558.399 736.933 555.24 731.307C552.181 725.583 550.651 718.872 550.651 711.174V709.397C550.651 701.699 552.181 695.037 555.24 689.411C558.3 683.687 562.593 679.295 568.12 676.236C573.647 673.077 580.062 671.498 587.366 671.498C594.57 671.498 600.838 673.127 606.167 676.384C611.497 679.542 615.642 683.983 618.603 689.707C621.564 695.333 623.044 701.896 623.044 709.397V715.763H569.601C569.798 720.796 571.673 724.892 575.226 728.051C578.779 731.209 583.122 732.788 588.254 732.788C593.485 732.788 597.334 731.653 599.801 729.383C602.269 727.113 604.144 724.596 605.427 721.833L620.675 729.827C619.294 732.393 617.27 735.206 614.606 738.265C612.039 741.226 608.585 743.792 604.243 745.964C599.9 748.036 594.373 749.073 587.662 749.073ZM569.749 701.847H604.095C603.7 697.603 601.973 694.198 598.913 691.632C595.952 689.066 592.054 687.783 587.218 687.783C582.184 687.783 578.187 689.066 575.226 691.632C572.265 694.198 570.439 697.603 569.749 701.847ZM718.392 749.073C711.286 749.073 704.821 747.493 698.998 744.335C693.274 741.078 688.684 736.39 685.23 730.271C681.874 724.053 680.197 716.503 680.197 707.621V682.749C680.197 669.426 683.947 659.211 691.448 652.105C698.949 644.9 709.114 641.297 721.945 641.297C734.676 641.297 744.496 644.702 751.405 651.512C758.412 658.224 761.916 667.353 761.916 678.9V679.493H742.671V678.308C742.671 674.656 741.881 671.35 740.302 668.389C738.821 665.428 736.551 663.109 733.492 661.431C730.432 659.655 726.583 658.767 721.945 658.767C715.036 658.767 709.608 660.888 705.66 665.132C701.712 669.376 699.738 675.15 699.738 682.453V707.917C699.738 715.121 701.712 720.944 705.66 725.386C709.608 729.728 715.135 731.9 722.241 731.9C729.347 731.9 734.528 730.024 737.785 726.274C741.042 722.524 742.671 717.786 742.671 712.062V710.581H718.096V694.001H761.916V747H743.855V737.081H741.19C740.499 738.759 739.364 740.535 737.785 742.411C736.305 744.286 734.035 745.865 730.975 747.148C727.916 748.431 723.721 749.073 718.392 749.073ZM806.937 749.073C801.706 749.073 797.018 748.184 792.873 746.408C788.728 744.533 785.422 741.868 782.954 738.414C780.586 734.86 779.401 730.567 779.401 725.534C779.401 720.5 780.586 716.306 782.954 712.95C785.422 709.496 788.777 706.93 793.021 705.252C797.364 703.475 802.299 702.587 807.826 702.587H827.959V698.442C827.959 694.988 826.874 692.175 824.702 690.004C822.531 687.734 819.077 686.599 814.339 686.599C809.701 686.599 806.246 687.684 803.976 689.856C801.706 691.928 800.226 694.642 799.535 697.998L782.362 692.224C783.547 688.474 785.422 685.069 787.988 682.009C790.653 678.851 794.156 676.334 798.499 674.459C802.94 672.485 808.319 671.498 814.636 671.498C824.308 671.498 831.957 673.916 837.582 678.752C843.208 683.588 846.021 690.596 846.021 699.774V727.162C846.021 730.123 847.402 731.604 850.166 731.604H856.088V747H843.652C840 747 836.99 746.112 834.621 744.335C832.253 742.559 831.068 740.19 831.068 737.229V737.081H828.255C827.861 738.265 826.972 739.845 825.591 741.819C824.209 743.694 822.038 745.372 819.077 746.852C816.116 748.332 812.069 749.073 806.937 749.073ZM810.194 733.972C815.425 733.972 819.669 732.541 822.926 729.679C826.282 726.718 827.959 722.82 827.959 717.984V716.503H809.158C805.704 716.503 802.99 717.243 801.016 718.724C799.042 720.204 798.055 722.277 798.055 724.942C798.055 727.606 799.091 729.778 801.164 731.456C803.236 733.133 806.246 733.972 810.194 733.972ZM872.687 776.609V673.571H891.044V682.453H893.709C895.387 679.591 898.002 677.074 901.555 674.903C905.108 672.633 910.191 671.498 916.803 671.498C922.725 671.498 928.203 672.979 933.236 675.939C938.27 678.802 942.316 683.046 945.376 688.671C948.435 694.297 949.965 701.107 949.965 709.101V711.47C949.965 719.464 948.435 726.274 945.376 731.9C942.316 737.525 938.27 741.819 933.236 744.779C928.203 747.642 922.725 749.073 916.803 749.073C912.362 749.073 908.612 748.53 905.552 747.444C902.591 746.457 900.173 745.174 898.298 743.595C896.522 741.917 895.091 740.239 894.005 738.562H891.34V776.609H872.687ZM911.178 732.788C917.001 732.788 921.788 730.962 925.538 727.31C929.387 723.56 931.312 718.132 931.312 711.026V709.545C931.312 702.439 929.387 697.06 925.538 693.409C921.689 689.658 916.902 687.783 911.178 687.783C905.454 687.783 900.667 689.658 896.818 693.409C892.969 697.06 891.044 702.439 891.044 709.545V711.026C891.044 718.132 892.969 723.56 896.818 727.31C900.667 730.962 905.454 732.788 911.178 732.788ZM980.882 749.073C976.934 749.073 973.578 747.79 970.815 745.223C968.15 742.559 966.818 739.154 966.818 735.009C966.818 730.863 968.15 727.508 970.815 724.942C973.578 722.277 976.934 720.944 980.882 720.944C984.928 720.944 988.284 722.277 990.949 724.942C993.613 727.508 994.946 730.863 994.946 735.009C994.946 739.154 993.613 742.559 990.949 745.223C988.284 747.79 984.928 749.073 980.882 749.073ZM1027.94 749.073C1023.99 749.073 1020.63 747.79 1017.87 745.223C1015.21 742.559 1013.87 739.154 1013.87 735.009C1013.87 730.863 1015.21 727.508 1017.87 724.942C1020.63 722.277 1023.99 720.944 1027.94 720.944C1031.98 720.944 1035.34 722.277 1038 724.942C1040.67 727.508 1042 730.863 1042 735.009C1042 739.154 1040.67 742.559 1038 745.223C1035.34 747.79 1031.98 749.073 1027.94 749.073ZM1074.99 749.073C1071.05 749.073 1067.69 747.79 1064.93 745.223C1062.26 742.559 1060.93 739.154 1060.93 735.009C1060.93 730.863 1062.26 727.508 1064.93 724.942C1067.69 722.277 1071.05 720.944 1074.99 720.944C1079.04 720.944 1082.4 722.277 1085.06 724.942C1087.72 727.508 1089.06 730.863 1089.06 735.009C1089.06 739.154 1087.72 742.559 1085.06 745.223C1082.4 747.79 1079.04 749.073 1074.99 749.073Z" fill="white"/>
</g>
<defs>
<filter id="filter0_b_533_771" x="-35" y="-35" width="871" height="871" filterUnits="userSpaceOnUse" color-interpolation-filters="sRGB">
<feFlood flood-opacity="0" result="BackgroundImageFix"/>
<feGaussianBlur in="BackgroundImageFix" stdDeviation="17.5"/>
<feComposite in2="SourceAlpha" operator="in" result="effect1_backgroundBlur_533_771"/>
<feBlend mode="normal" in="SourceGraphic" in2="effect1_backgroundBlur_533_771" result="shape"/>
</filter>
<linearGradient id="paint0_linear_533_771" x1="172.5" y1="85" x2="373" y2="374.5" gradientUnits="userSpaceOnUse">
<stop stop-color="white"/>
<stop offset="1" stop-color="white"/>
</linearGradient>
<clipPath id="clip0_533_771">
<rect width="801" height="801" rx="400" fill="white"/>
</clipPath>
</defs>
</svg>
