<svg width="1393" height="779" viewBox="0 0 1393 779" fill="none" xmlns="http://www.w3.org/2000/svg">
<path d="M259.245 461.477C237.038 461.477 216.836 456.542 198.64 446.673C180.751 436.495 166.409 421.845 155.615 402.722C145.128 383.292 139.885 359.698 139.885 331.94V254.217C139.885 212.58 151.605 180.658 175.045 158.452C198.485 135.937 230.253 124.68 270.348 124.68C310.134 124.68 340.822 135.32 362.412 156.601C384.31 177.574 395.259 206.103 395.259 242.189V244.039H335.116V240.338C335.116 228.926 332.649 218.594 327.714 209.342C323.088 200.089 315.994 192.841 306.433 187.598C296.872 182.046 284.844 179.27 270.348 179.27C248.758 179.27 231.795 185.902 219.458 199.164C207.121 212.426 200.953 230.469 200.953 253.292V332.865C200.953 355.38 207.121 373.577 219.458 387.456C231.795 401.026 249.067 407.811 271.273 407.811C293.479 407.811 309.672 401.951 319.85 390.231C330.027 378.511 335.116 363.707 335.116 345.818V341.192H258.319V289.377H395.259V455H338.817V424.004H330.49C328.331 429.247 324.784 434.798 319.85 440.658C315.223 446.518 308.129 451.453 298.568 455.463C289.007 459.472 275.899 461.477 259.245 461.477ZM535.95 461.477C519.604 461.477 504.953 458.701 492 453.149C479.046 447.289 468.714 438.962 461.003 428.167C453.601 417.064 449.9 403.648 449.9 387.918C449.9 372.189 453.601 359.081 461.003 348.594C468.714 337.8 479.2 329.781 492.462 324.537C506.033 318.986 521.454 316.21 538.726 316.21H601.644V303.256C601.644 292.461 598.251 283.671 591.466 276.886C584.681 269.792 573.886 266.246 559.082 266.246C544.586 266.246 533.791 269.638 526.697 276.423C519.604 282.9 514.977 291.382 512.818 301.868L459.153 283.826C462.854 272.106 468.714 261.465 476.733 251.904C485.06 242.034 496.009 234.17 509.58 228.31C523.459 222.141 540.268 219.057 560.007 219.057C590.232 219.057 614.135 226.613 631.715 241.726C649.295 256.839 658.085 278.737 658.085 307.42V393.007C658.085 402.26 662.403 406.886 671.039 406.886H689.544V455H650.683C639.271 455 629.865 452.224 622.462 446.673C615.06 441.121 611.359 433.719 611.359 424.466V424.004H602.569C601.335 427.705 598.56 432.639 594.242 438.808C589.924 444.668 583.139 449.911 573.886 454.537C564.633 459.164 551.988 461.477 535.95 461.477ZM546.128 414.288C562.474 414.288 575.736 409.816 585.914 400.872C596.401 391.619 601.644 379.437 601.644 364.324V359.698H542.889C532.095 359.698 523.613 362.011 517.445 366.637C511.276 371.263 508.192 377.74 508.192 386.068C508.192 394.395 511.43 401.18 517.907 406.423C524.384 411.667 533.791 414.288 546.128 414.288ZM829.426 461.477C811.229 461.477 794.111 457.005 778.073 448.06C762.344 438.808 749.699 425.391 740.137 407.811C730.576 390.231 725.796 368.95 725.796 343.968V336.566C725.796 311.584 730.576 290.302 740.137 272.722C749.699 255.142 762.344 241.88 778.073 232.936C793.803 223.683 810.92 219.057 829.426 219.057C843.305 219.057 854.871 220.753 864.123 224.146C873.684 227.23 881.395 231.24 887.255 236.174C893.115 241.109 897.587 246.352 900.671 251.904H908.999V131.157H967.291V455H909.924V427.242H901.597C896.353 435.878 888.18 443.743 877.077 450.836C866.282 457.93 850.398 461.477 829.426 461.477ZM847.006 410.587C864.894 410.587 879.853 404.881 891.881 393.47C903.91 381.75 909.924 364.786 909.924 342.58V337.954C909.924 315.747 903.91 298.938 891.881 287.527C880.161 275.807 865.203 269.947 847.006 269.947C829.117 269.947 814.159 275.807 802.13 287.527C790.102 298.938 784.088 315.747 784.088 337.954V342.58C784.088 364.786 790.102 381.75 802.13 393.47C814.159 404.881 829.117 410.587 847.006 410.587ZM1112.42 461.477C1096.07 461.477 1081.42 458.701 1068.47 453.149C1055.51 447.289 1045.18 438.962 1037.47 428.167C1030.07 417.064 1026.37 403.648 1026.37 387.918C1026.37 372.189 1030.07 359.081 1037.47 348.594C1045.18 337.8 1055.67 329.781 1068.93 324.537C1082.5 318.986 1097.92 316.21 1115.19 316.21H1178.11V303.256C1178.11 292.461 1174.72 283.671 1167.93 276.886C1161.15 269.792 1150.35 266.246 1135.55 266.246C1121.05 266.246 1110.26 269.638 1103.16 276.423C1096.07 282.9 1091.44 291.382 1089.28 301.868L1035.62 283.826C1039.32 272.106 1045.18 261.465 1053.2 251.904C1061.53 242.034 1072.48 234.17 1086.05 228.31C1099.93 222.141 1116.73 219.057 1136.47 219.057C1166.7 219.057 1190.6 226.613 1208.18 241.726C1225.76 256.839 1234.55 278.737 1234.55 307.42V393.007C1234.55 402.26 1238.87 406.886 1247.51 406.886H1266.01V455H1227.15C1215.74 455 1206.33 452.224 1198.93 446.673C1191.53 441.121 1187.83 433.719 1187.83 424.466V424.004H1179.04C1177.8 427.705 1175.03 432.639 1170.71 438.808C1166.39 444.668 1159.61 449.911 1150.35 454.537C1141.1 459.164 1128.45 461.477 1112.42 461.477ZM1122.59 414.288C1138.94 414.288 1152.2 409.816 1162.38 400.872C1172.87 391.619 1178.11 379.437 1178.11 364.324V359.698H1119.36C1108.56 359.698 1100.08 362.011 1093.91 366.637C1087.74 371.263 1084.66 377.74 1084.66 386.068C1084.66 394.395 1087.9 401.18 1094.37 406.423C1100.85 411.667 1110.26 414.288 1122.59 414.288Z" fill="white"/>
<path d="M6.80997 736V718.827H20.4299V649.543H6.80997V632.37H60.1053C66.4218 632.37 71.8994 633.456 76.5381 635.627C81.2754 637.7 84.9272 640.71 87.4932 644.658C90.158 648.507 91.4904 653.145 91.4904 658.574V660.054C91.4904 664.791 90.6021 668.69 88.8256 671.749C87.0491 674.71 84.9272 677.03 82.4598 678.707C80.0911 680.287 77.8211 681.422 75.6498 682.112V684.777C77.8211 685.369 80.1898 686.504 82.7559 688.182C85.322 689.761 87.4932 692.081 89.2698 695.14C91.145 698.2 92.0826 702.197 92.0826 707.132V708.612C92.0826 714.336 90.7502 719.271 88.0854 723.416C85.4206 727.463 81.7196 730.572 76.9822 732.743C72.3435 734.914 66.9153 736 60.6975 736H6.80997ZM39.9715 718.235H58.3288C62.5727 718.235 65.9777 717.199 68.5438 715.126C71.2085 713.053 72.5409 710.093 72.5409 706.243V704.763C72.5409 700.914 71.2579 697.953 68.6918 695.88C66.1257 693.808 62.6714 692.772 58.3288 692.772H39.9715V718.235ZM39.9715 675.006H58.0327C62.0792 675.006 65.3855 673.97 67.9516 671.898C70.6164 669.825 71.9488 666.963 71.9488 663.311V661.831C71.9488 658.08 70.6657 655.218 68.0996 653.244C65.5336 651.172 62.1779 650.135 58.0327 650.135H39.9715V675.006ZM111.633 736V662.571H129.991V670.861H132.656C133.741 667.9 135.518 665.729 137.985 664.347C140.551 662.966 143.512 662.275 146.868 662.275H155.75V678.856H146.572C141.834 678.856 137.936 680.139 134.876 682.705C131.817 685.172 130.287 689.021 130.287 694.252V736H111.633ZM173.291 736V662.571H191.944V736H173.291ZM182.618 653.984C179.262 653.984 176.4 652.899 174.031 650.727C171.761 648.556 170.626 645.694 170.626 642.141C170.626 638.588 171.761 635.726 174.031 633.554C176.4 631.383 179.262 630.297 182.618 630.297C186.072 630.297 188.934 631.383 191.204 633.554C193.474 635.726 194.609 638.588 194.609 642.141C194.609 645.694 193.474 648.556 191.204 650.727C188.934 652.899 186.072 653.984 182.618 653.984ZM245.184 738.073C239.361 738.073 233.884 736.642 228.751 733.779C223.718 730.819 219.671 726.525 216.612 720.9C213.552 715.274 212.023 708.464 212.023 700.47V698.101C212.023 690.107 213.552 683.297 216.612 677.671C219.671 672.046 223.718 667.802 228.751 664.939C233.785 661.979 239.262 660.498 245.184 660.498C249.625 660.498 253.327 661.041 256.287 662.127C259.347 663.114 261.814 664.397 263.69 665.976C265.565 667.555 266.996 669.233 267.983 671.009H270.648V632.37H289.301V736H270.944V727.117H268.279C266.601 729.881 263.986 732.398 260.433 734.668C256.978 736.938 251.895 738.073 245.184 738.073ZM250.81 721.788C256.534 721.788 261.321 719.962 265.17 716.31C269.019 712.56 270.944 707.132 270.944 700.026V698.545C270.944 691.439 269.019 686.06 265.17 682.409C261.42 678.658 256.633 676.783 250.81 676.783C245.085 676.783 240.299 678.658 236.45 682.409C232.601 686.06 230.676 691.439 230.676 698.545V700.026C230.676 707.132 232.601 712.56 236.45 716.31C240.299 719.962 245.085 721.788 250.81 721.788ZM309.39 699.581V697.213C309.39 689.515 310.919 682.951 313.979 677.523C317.038 671.996 321.085 667.802 326.118 664.939C331.251 661.979 336.827 660.498 342.847 660.498C349.559 660.498 354.641 661.683 358.096 664.051C361.55 666.42 364.067 668.887 365.646 671.453H368.311V662.571H386.668V749.028C386.668 754.061 385.187 758.058 382.227 761.019C379.266 764.079 375.318 765.609 370.383 765.609H321.233V749.324H363.869C366.633 749.324 368.015 747.843 368.015 744.883V725.785H365.35C364.363 727.364 362.981 728.993 361.205 730.67C359.428 732.25 357.059 733.582 354.098 734.668C351.138 735.753 347.387 736.296 342.847 736.296C336.827 736.296 331.251 734.865 326.118 732.003C321.085 729.042 317.038 724.847 313.979 719.419C310.919 713.892 309.39 707.28 309.39 699.581ZM348.177 720.011C353.901 720.011 358.688 718.186 362.537 714.534C366.386 710.882 368.311 705.75 368.311 699.137V697.657C368.311 690.946 366.386 685.814 362.537 682.26C358.787 678.609 354 676.783 348.177 676.783C342.452 676.783 337.666 678.609 333.817 682.26C329.968 685.814 328.043 690.946 328.043 697.657V699.137C328.043 705.75 329.968 710.882 333.817 714.534C337.666 718.186 342.452 720.011 348.177 720.011ZM410.31 736V662.571H428.963V736H410.31ZM419.636 653.984C416.281 653.984 413.419 652.899 411.05 650.727C408.78 648.556 407.645 645.694 407.645 642.141C407.645 638.588 408.78 635.726 411.05 633.554C413.419 631.383 416.281 630.297 419.636 630.297C423.091 630.297 425.953 631.383 428.223 633.554C430.493 635.726 431.628 638.588 431.628 642.141C431.628 645.694 430.493 648.556 428.223 650.727C425.953 652.899 423.091 653.984 419.636 653.984ZM452.594 736V662.571H470.952V672.194H473.616C474.801 669.628 477.021 667.209 480.278 664.939C483.535 662.571 488.47 661.386 495.083 661.386C500.807 661.386 505.791 662.719 510.035 665.384C514.377 667.95 517.733 671.552 520.102 676.191C522.47 680.731 523.655 686.06 523.655 692.179V736H505.001V693.66C505.001 688.133 503.62 683.988 500.856 681.224C498.191 678.461 494.342 677.079 489.309 677.079C483.585 677.079 479.143 679.004 475.985 682.853C472.827 686.603 471.248 691.883 471.248 698.693V736H452.594ZM543.228 699.581V697.213C543.228 689.515 544.757 682.951 547.817 677.523C550.877 671.996 554.923 667.802 559.957 664.939C565.089 661.979 570.665 660.498 576.685 660.498C583.397 660.498 588.479 661.683 591.934 664.051C595.388 666.42 597.905 668.887 599.484 671.453H602.149V662.571H620.506V749.028C620.506 754.061 619.026 758.058 616.065 761.019C613.104 764.079 609.156 765.609 604.221 765.609H555.071V749.324H597.707C600.471 749.324 601.853 747.843 601.853 744.883V725.785H599.188C598.201 727.364 596.819 728.993 595.043 730.67C593.266 732.25 590.897 733.582 587.937 734.668C584.976 735.753 581.225 736.296 576.685 736.296C570.665 736.296 565.089 734.865 559.957 732.003C554.923 729.042 550.877 724.847 547.817 719.419C544.757 713.892 543.228 707.28 543.228 699.581ZM582.015 720.011C587.739 720.011 592.526 718.186 596.375 714.534C600.224 710.882 602.149 705.75 602.149 699.137V697.657C602.149 690.946 600.224 685.814 596.375 682.26C592.625 678.609 587.838 676.783 582.015 676.783C576.291 676.783 571.504 678.609 567.655 682.26C563.806 685.814 561.881 690.946 561.881 697.657V699.137C561.881 705.75 563.806 710.882 567.655 714.534C571.504 718.186 576.291 720.011 582.015 720.011ZM712.826 736C707.99 736 704.042 734.52 700.982 731.559C698.021 728.499 696.541 724.453 696.541 719.419V677.967H678.184V662.571H696.541V639.772H715.194V662.571H735.328V677.967H715.194V716.162C715.194 719.123 716.576 720.604 719.34 720.604H733.552V736H712.826ZM755.174 736V632.37H773.827V671.601H776.492C777.282 670.022 778.515 668.443 780.193 666.864C781.871 665.285 784.092 664.002 786.855 663.015C789.717 661.929 793.32 661.386 797.662 661.386C803.387 661.386 808.371 662.719 812.615 665.384C816.957 667.95 820.313 671.552 822.681 676.191C825.05 680.731 826.234 686.06 826.234 692.179V736H807.581V693.66C807.581 688.133 806.199 683.988 803.436 681.224C800.771 678.461 796.922 677.079 791.889 677.079C786.164 677.079 781.723 679.004 778.565 682.853C775.406 686.603 773.827 691.883 773.827 698.693V736H755.174ZM882.818 738.073C875.515 738.073 869.05 736.543 863.424 733.483C857.897 730.325 853.555 725.933 850.397 720.307C847.337 714.583 845.807 707.872 845.807 700.174V698.397C845.807 690.699 847.337 684.037 850.397 678.411C853.456 672.687 857.749 668.295 863.276 665.236C868.803 662.077 875.218 660.498 882.522 660.498C889.727 660.498 895.994 662.127 901.323 665.384C906.653 668.542 910.798 672.983 913.759 678.707C916.72 684.333 918.2 690.896 918.2 698.397V704.763H864.757C864.954 709.796 866.829 713.892 870.382 717.051C873.935 720.209 878.278 721.788 883.41 721.788C888.641 721.788 892.49 720.653 894.958 718.383C897.425 716.113 899.3 713.596 900.583 710.833L915.832 718.827C914.45 721.393 912.427 724.206 909.762 727.265C907.196 730.226 903.741 732.792 899.399 734.964C895.056 737.036 889.529 738.073 882.818 738.073ZM864.905 690.847H899.251C898.856 686.603 897.129 683.198 894.069 680.632C891.108 678.066 887.21 676.783 882.374 676.783C877.34 676.783 873.343 678.066 870.382 680.632C867.422 683.198 865.596 686.603 864.905 690.847ZM1013.55 738.073C1006.44 738.073 999.977 736.493 994.154 733.335C988.43 730.078 983.841 725.39 980.386 719.271C977.031 713.053 975.353 705.503 975.353 696.621V671.749C975.353 658.426 979.103 648.211 986.604 641.105C994.105 633.9 1004.27 630.297 1017.1 630.297C1029.83 630.297 1039.65 633.702 1046.56 640.512C1053.57 647.224 1057.07 656.353 1057.07 667.9V668.493H1037.83V667.308C1037.83 663.656 1037.04 660.35 1035.46 657.389C1033.98 654.428 1031.71 652.109 1028.65 650.431C1025.59 648.655 1021.74 647.767 1017.1 647.767C1010.19 647.767 1004.76 649.888 1000.82 654.132C996.868 658.376 994.894 664.15 994.894 671.453V696.917C994.894 704.121 996.868 709.944 1000.82 714.386C1004.76 718.728 1010.29 720.9 1017.4 720.9C1024.5 720.9 1029.68 719.024 1032.94 715.274C1036.2 711.524 1037.83 706.786 1037.83 701.062V699.581H1013.25V683.001H1057.07V736H1039.01V726.081H1036.35C1035.66 727.759 1034.52 729.535 1032.94 731.411C1031.46 733.286 1029.19 734.865 1026.13 736.148C1023.07 737.431 1018.88 738.073 1013.55 738.073ZM1102.09 738.073C1096.86 738.073 1092.17 737.184 1088.03 735.408C1083.88 733.533 1080.58 730.868 1078.11 727.414C1075.74 723.86 1074.56 719.567 1074.56 714.534C1074.56 709.5 1075.74 705.306 1078.11 701.95C1080.58 698.496 1083.93 695.93 1088.18 694.252C1092.52 692.475 1097.45 691.587 1102.98 691.587H1123.12V687.442C1123.12 683.988 1122.03 681.175 1119.86 679.004C1117.69 676.734 1114.23 675.599 1109.5 675.599C1104.86 675.599 1101.4 676.684 1099.13 678.856C1096.86 680.928 1095.38 683.642 1094.69 686.998L1077.52 681.224C1078.7 677.474 1080.58 674.069 1083.14 671.009C1085.81 667.851 1089.31 665.334 1093.66 663.459C1098.1 661.485 1103.48 660.498 1109.79 660.498C1119.46 660.498 1127.11 662.916 1132.74 667.752C1138.36 672.588 1141.18 679.596 1141.18 688.774V716.162C1141.18 719.123 1142.56 720.604 1145.32 720.604H1151.24V736H1138.81C1135.16 736 1132.15 735.112 1129.78 733.335C1127.41 731.559 1126.22 729.19 1126.22 726.229V726.081H1123.41C1123.02 727.265 1122.13 728.845 1120.75 730.819C1119.37 732.694 1117.19 734.372 1114.23 735.852C1111.27 737.332 1107.23 738.073 1102.09 738.073ZM1105.35 722.972C1110.58 722.972 1114.83 721.541 1118.08 718.679C1121.44 715.718 1123.12 711.82 1123.12 706.984V705.503H1104.31C1100.86 705.503 1098.15 706.243 1096.17 707.724C1094.2 709.204 1093.21 711.277 1093.21 713.942C1093.21 716.606 1094.25 718.778 1096.32 720.456C1098.39 722.133 1101.4 722.972 1105.35 722.972ZM1167.84 765.609V662.571H1186.2V671.453H1188.87C1190.54 668.591 1193.16 666.074 1196.71 663.903C1200.26 661.633 1205.35 660.498 1211.96 660.498C1217.88 660.498 1223.36 661.979 1228.39 664.939C1233.43 667.802 1237.47 672.046 1240.53 677.671C1243.59 683.297 1245.12 690.107 1245.12 698.101V700.47C1245.12 708.464 1243.59 715.274 1240.53 720.9C1237.47 726.525 1233.43 730.819 1228.39 733.779C1223.36 736.642 1217.88 738.073 1211.96 738.073C1207.52 738.073 1203.77 737.53 1200.71 736.444C1197.75 735.457 1195.33 734.174 1193.45 732.595C1191.68 730.917 1190.25 729.239 1189.16 727.562H1186.5V765.609H1167.84ZM1206.33 721.788C1212.16 721.788 1216.94 719.962 1220.69 716.31C1224.54 712.56 1226.47 707.132 1226.47 700.026V698.545C1226.47 691.439 1224.54 686.06 1220.69 682.409C1216.85 678.658 1212.06 676.783 1206.33 676.783C1200.61 676.783 1195.82 678.658 1191.97 682.409C1188.12 686.06 1186.2 691.439 1186.2 698.545V700.026C1186.2 707.132 1188.12 712.56 1191.97 716.31C1195.82 719.962 1200.61 721.788 1206.33 721.788ZM1276.04 738.073C1272.09 738.073 1268.73 736.79 1265.97 734.223C1263.31 731.559 1261.97 728.154 1261.97 724.009C1261.97 719.863 1263.31 716.508 1265.97 713.942C1268.73 711.277 1272.09 709.944 1276.04 709.944C1280.08 709.944 1283.44 711.277 1286.1 713.942C1288.77 716.508 1290.1 719.863 1290.1 724.009C1290.1 728.154 1288.77 731.559 1286.1 734.223C1283.44 736.79 1280.08 738.073 1276.04 738.073ZM1323.09 738.073C1319.15 738.073 1315.79 736.79 1313.03 734.223C1310.36 731.559 1309.03 728.154 1309.03 724.009C1309.03 719.863 1310.36 716.508 1313.03 713.942C1315.79 711.277 1319.15 709.944 1323.09 709.944C1327.14 709.944 1330.5 711.277 1333.16 713.942C1335.83 716.508 1337.16 719.863 1337.16 724.009C1337.16 728.154 1335.83 731.559 1333.16 734.223C1330.5 736.79 1327.14 738.073 1323.09 738.073ZM1370.15 738.073C1366.2 738.073 1362.85 736.79 1360.08 734.223C1357.42 731.559 1356.09 728.154 1356.09 724.009C1356.09 719.863 1357.42 716.508 1360.08 713.942C1362.85 711.277 1366.2 709.944 1370.15 709.944C1374.2 709.944 1377.55 711.277 1380.22 713.942C1382.88 716.508 1384.21 719.863 1384.21 724.009C1384.21 728.154 1382.88 731.559 1380.22 734.223C1377.55 736.79 1374.2 738.073 1370.15 738.073Z" fill="white"/>
</svg>
